<mxfile host="app.diagrams.net" modified="2024-06-19T03:51:33.093Z" agent="Mozilla/5.0 (Macintosh; Intel Mac OS X 10_15_7) AppleWebKit/537.36 (KHTML, like Gecko) Chrome/126.0.0.0 Safari/537.36" etag="D32GBarDhxRnKkYgMtQK" version="24.2.5" type="github">
  <diagram name="Page-1" id="edf60f1a-56cd-e834-aa8a-f176f3a09ee4">
    <mxGraphModel dx="2074" dy="1029" grid="1" gridSize="2" guides="1" tooltips="1" connect="1" arrows="1" fold="1" page="1" pageScale="1" pageWidth="3300" pageHeight="2339" background="none" math="0" shadow="0">
      <root>
        <mxCell id="0" />
        <mxCell id="1" parent="0" />
        <mxCell id="O1Lk2BeVLnMHG4F84F1X-48" style="edgeStyle=orthogonalEdgeStyle;rounded=0;orthogonalLoop=1;jettySize=auto;html=1;exitX=0.5;exitY=1;exitDx=0;exitDy=0;strokeWidth=2;fontSize=14;" parent="1" source="O1Lk2BeVLnMHG4F84F1X-1" target="O1Lk2BeVLnMHG4F84F1X-2" edge="1">
          <mxGeometry relative="1" as="geometry" />
        </mxCell>
        <mxCell id="O1Lk2BeVLnMHG4F84F1X-1" value="回型算法开始" style="whiteSpace=wrap;html=1;aspect=fixed;fontSize=14;" parent="1" vertex="1">
          <mxGeometry x="792" y="198" width="74" height="74" as="geometry" />
        </mxCell>
        <mxCell id="O1Lk2BeVLnMHG4F84F1X-12" value="" style="edgeStyle=orthogonalEdgeStyle;rounded=0;orthogonalLoop=1;jettySize=auto;html=1;strokeWidth=2;fontSize=14;" parent="1" source="O1Lk2BeVLnMHG4F84F1X-2" target="O1Lk2BeVLnMHG4F84F1X-11" edge="1">
          <mxGeometry relative="1" as="geometry">
            <Array as="points">
              <mxPoint x="829" y="408" />
              <mxPoint x="829" y="408" />
            </Array>
          </mxGeometry>
        </mxCell>
        <mxCell id="O1Lk2BeVLnMHG4F84F1X-2" value="根据变电站个数进行筛选" style="whiteSpace=wrap;html=1;fontSize=14;" parent="1" vertex="1">
          <mxGeometry x="769" y="328" width="120" height="60" as="geometry" />
        </mxCell>
        <mxCell id="O1Lk2BeVLnMHG4F84F1X-19" value="" style="edgeStyle=orthogonalEdgeStyle;rounded=0;orthogonalLoop=1;jettySize=auto;html=1;strokeWidth=2;fontSize=14;" parent="1" source="O1Lk2BeVLnMHG4F84F1X-11" target="O1Lk2BeVLnMHG4F84F1X-18" edge="1">
          <mxGeometry relative="1" as="geometry">
            <Array as="points">
              <mxPoint x="829" y="558" />
              <mxPoint x="829" y="558" />
            </Array>
          </mxGeometry>
        </mxCell>
        <mxCell id="O1Lk2BeVLnMHG4F84F1X-79" style="edgeStyle=orthogonalEdgeStyle;rounded=0;orthogonalLoop=1;jettySize=auto;html=1;exitX=0;exitY=0.5;exitDx=0;exitDy=0;endArrow=none;endFill=0;strokeWidth=2;fontSize=14;" parent="1" source="O1Lk2BeVLnMHG4F84F1X-11" edge="1">
          <mxGeometry relative="1" as="geometry">
            <mxPoint x="534" y="1094" as="targetPoint" />
            <Array as="points">
              <mxPoint x="399" y="487" />
              <mxPoint x="399" y="1094" />
            </Array>
          </mxGeometry>
        </mxCell>
        <mxCell id="O1Lk2BeVLnMHG4F84F1X-11" value="变电站个数是否为0" style="rhombus;whiteSpace=wrap;html=1;fontSize=14;" parent="1" vertex="1">
          <mxGeometry x="764" y="434" width="130" height="106" as="geometry" />
        </mxCell>
        <mxCell id="O1Lk2BeVLnMHG4F84F1X-13" value="结束" style="whiteSpace=wrap;html=1;fontSize=14;" parent="1" vertex="1">
          <mxGeometry x="769" y="1170" width="120" height="60" as="geometry" />
        </mxCell>
        <mxCell id="O1Lk2BeVLnMHG4F84F1X-22" value="" style="edgeStyle=orthogonalEdgeStyle;rounded=0;orthogonalLoop=1;jettySize=auto;html=1;strokeWidth=2;fontSize=14;" parent="1" source="O1Lk2BeVLnMHG4F84F1X-18" target="O1Lk2BeVLnMHG4F84F1X-21" edge="1">
          <mxGeometry relative="1" as="geometry" />
        </mxCell>
        <mxCell id="O1Lk2BeVLnMHG4F84F1X-18" value="&lt;div style=&quot;font-size: 14px;&quot;&gt;&lt;span style=&quot;background-color: initial; font-size: 14px;&quot;&gt;计算maxWidth、yNum、&lt;/span&gt;&lt;span style=&quot;background-color: initial; font-size: 14px;&quot;&gt;xNum、&lt;/span&gt;&lt;span style=&quot;background-color: initial; font-size: 14px;&quot;&gt;proportion、widthValue、moderate，&lt;/span&gt;&lt;/div&gt;&lt;div style=&quot;font-size: 14px;&quot;&gt;根据proportionValue设置&lt;/div&gt;&lt;div style=&quot;font-size: 14px;&quot;&gt;&lt;span style=&quot;background-color: initial; font-size: 14px;&quot;&gt;moderateWidth和&lt;/span&gt;&lt;span style=&quot;background-color: initial; font-size: 14px;&quot;&gt;moderateHeight&lt;/span&gt;&lt;/div&gt;" style="html=1;align=center;labelPosition=center;verticalLabelPosition=middle;verticalAlign=middle;whiteSpace=wrap;fontSize=14;" parent="1" vertex="1">
          <mxGeometry x="716" y="572" width="226" height="80" as="geometry" />
        </mxCell>
        <mxCell id="O1Lk2BeVLnMHG4F84F1X-21" value="根据当前设置好&lt;br style=&quot;font-size: 14px;&quot;&gt;的画布居中&lt;br style=&quot;font-size: 14px;&quot;&gt;设置主站坐标" style="rhombus;whiteSpace=wrap;html=1;fontSize=14;" parent="1" vertex="1">
          <mxGeometry x="752" y="702" width="154" height="106" as="geometry" />
        </mxCell>
        <mxCell id="O1Lk2BeVLnMHG4F84F1X-75" style="edgeStyle=orthogonalEdgeStyle;rounded=0;orthogonalLoop=1;jettySize=auto;html=1;exitX=0.5;exitY=1;exitDx=0;exitDy=0;entryX=0.5;entryY=0;entryDx=0;entryDy=0;strokeWidth=2;fontSize=14;" parent="1" source="O1Lk2BeVLnMHG4F84F1X-23" target="O1Lk2BeVLnMHG4F84F1X-13" edge="1">
          <mxGeometry relative="1" as="geometry">
            <mxPoint x="630" y="1140" as="targetPoint" />
          </mxGeometry>
        </mxCell>
        <mxCell id="O1Lk2BeVLnMHG4F84F1X-23" value="根据四组随机数选取上下分布排列方式，并根据结果计算所有变电站坐标" style="whiteSpace=wrap;html=1;fontSize=14;" parent="1" vertex="1">
          <mxGeometry x="472" y="926" width="120" height="92" as="geometry" />
        </mxCell>
        <mxCell id="O1Lk2BeVLnMHG4F84F1X-77" style="edgeStyle=orthogonalEdgeStyle;rounded=0;orthogonalLoop=1;jettySize=auto;html=1;exitX=0.5;exitY=1;exitDx=0;exitDy=0;entryX=0.5;entryY=0;entryDx=0;entryDy=0;strokeWidth=2;fontSize=14;" parent="1" source="O1Lk2BeVLnMHG4F84F1X-25" target="O1Lk2BeVLnMHG4F84F1X-13" edge="1">
          <mxGeometry relative="1" as="geometry">
            <Array as="points">
              <mxPoint x="980" y="1094" />
              <mxPoint x="829" y="1094" />
            </Array>
          </mxGeometry>
        </mxCell>
        <mxCell id="O1Lk2BeVLnMHG4F84F1X-25" value="根据四组随机数选取回型分布排列方式，并根据个数进行分组排列，最后根据结果计算所有变电站坐标" style="whiteSpace=wrap;html=1;fontSize=14;" parent="1" vertex="1">
          <mxGeometry x="920" y="926" width="120" height="94" as="geometry" />
        </mxCell>
        <mxCell id="O1Lk2BeVLnMHG4F84F1X-70" style="edgeStyle=orthogonalEdgeStyle;rounded=0;orthogonalLoop=1;jettySize=auto;html=1;exitX=0.5;exitY=1;exitDx=0;exitDy=0;entryX=0.5;entryY=0;entryDx=0;entryDy=0;strokeWidth=2;fontSize=14;" parent="1" source="O1Lk2BeVLnMHG4F84F1X-26" target="O1Lk2BeVLnMHG4F84F1X-13" edge="1">
          <mxGeometry relative="1" as="geometry" />
        </mxCell>
        <mxCell id="O1Lk2BeVLnMHG4F84F1X-26" value="采用随机成图方式数进行口字布局，并根据结果计算所有变电站坐标" style="whiteSpace=wrap;html=1;fontSize=14;" parent="1" vertex="1">
          <mxGeometry x="1096" y="926" width="120" height="92" as="geometry" />
        </mxCell>
        <mxCell id="O1Lk2BeVLnMHG4F84F1X-73" style="edgeStyle=orthogonalEdgeStyle;rounded=0;orthogonalLoop=1;jettySize=auto;html=1;exitX=0.5;exitY=1;exitDx=0;exitDy=0;entryX=0.5;entryY=0;entryDx=0;entryDy=0;strokeWidth=2;fontSize=14;" parent="1" source="O1Lk2BeVLnMHG4F84F1X-27" target="O1Lk2BeVLnMHG4F84F1X-13" edge="1">
          <mxGeometry relative="1" as="geometry" />
        </mxCell>
        <mxCell id="O1Lk2BeVLnMHG4F84F1X-27" value="根据四组随机数选取上二下一分布排列方式，并根据结果计算所有变电站坐标" style="whiteSpace=wrap;html=1;fontSize=14;" parent="1" vertex="1">
          <mxGeometry x="769" y="926" width="120" height="90" as="geometry" />
        </mxCell>
        <mxCell id="O1Lk2BeVLnMHG4F84F1X-29" value="num==1" style="text;html=1;align=center;verticalAlign=middle;resizable=0;points=[];autosize=1;strokeColor=none;fillColor=none;fontSize=14;" parent="1" vertex="1">
          <mxGeometry x="517" y="849" width="70" height="30" as="geometry" />
        </mxCell>
        <mxCell id="O1Lk2BeVLnMHG4F84F1X-30" value="num&amp;gt;=21" style="text;html=1;align=center;verticalAlign=middle;resizable=0;points=[];autosize=1;strokeColor=none;fillColor=none;fontSize=14;" parent="1" vertex="1">
          <mxGeometry x="1153" y="849" width="78" height="30" as="geometry" />
        </mxCell>
        <mxCell id="O1Lk2BeVLnMHG4F84F1X-33" value="4&amp;lt;=num&amp;lt;21" style="text;html=1;align=center;verticalAlign=middle;resizable=0;points=[];autosize=1;strokeColor=none;fillColor=none;fontSize=14;" parent="1" vertex="1">
          <mxGeometry x="971" y="851" width="94" height="30" as="geometry" />
        </mxCell>
        <mxCell id="O1Lk2BeVLnMHG4F84F1X-74" style="edgeStyle=orthogonalEdgeStyle;rounded=0;orthogonalLoop=1;jettySize=auto;html=1;exitX=0.5;exitY=1;exitDx=0;exitDy=0;entryX=0.5;entryY=0;entryDx=0;entryDy=0;strokeWidth=2;fontSize=14;" parent="1" source="O1Lk2BeVLnMHG4F84F1X-37" target="O1Lk2BeVLnMHG4F84F1X-13" edge="1">
          <mxGeometry relative="1" as="geometry" />
        </mxCell>
        <mxCell id="O1Lk2BeVLnMHG4F84F1X-37" value="根据四组随机数选取上下分布排列方式，并根据结果计算所有变电站坐标" style="whiteSpace=wrap;html=1;fontSize=14;" parent="1" vertex="1">
          <mxGeometry x="616" y="926" width="120" height="92" as="geometry" />
        </mxCell>
        <mxCell id="O1Lk2BeVLnMHG4F84F1X-60" value="" style="endArrow=none;html=1;rounded=0;strokeWidth=2;fontSize=14;" parent="1" edge="1">
          <mxGeometry width="50" height="50" relative="1" as="geometry">
            <mxPoint x="524" y="834" as="sourcePoint" />
            <mxPoint x="1158" y="832" as="targetPoint" />
          </mxGeometry>
        </mxCell>
        <mxCell id="O1Lk2BeVLnMHG4F84F1X-62" value="" style="endArrow=classic;html=1;rounded=0;entryX=0.449;entryY=0.011;entryDx=0;entryDy=0;entryPerimeter=0;strokeWidth=2;fontSize=14;" parent="1" target="O1Lk2BeVLnMHG4F84F1X-23" edge="1">
          <mxGeometry width="50" height="50" relative="1" as="geometry">
            <mxPoint x="526" y="834" as="sourcePoint" />
            <mxPoint x="720" y="780" as="targetPoint" />
          </mxGeometry>
        </mxCell>
        <mxCell id="O1Lk2BeVLnMHG4F84F1X-63" value="" style="endArrow=classic;html=1;rounded=0;entryX=0.5;entryY=0;entryDx=0;entryDy=0;strokeWidth=2;fontSize=14;" parent="1" target="O1Lk2BeVLnMHG4F84F1X-37" edge="1">
          <mxGeometry width="50" height="50" relative="1" as="geometry">
            <mxPoint x="676" y="834" as="sourcePoint" />
            <mxPoint x="716" y="876" as="targetPoint" />
          </mxGeometry>
        </mxCell>
        <mxCell id="O1Lk2BeVLnMHG4F84F1X-65" value="" style="endArrow=none;html=1;rounded=0;exitX=0.5;exitY=1;exitDx=0;exitDy=0;strokeWidth=2;fontSize=14;" parent="1" source="O1Lk2BeVLnMHG4F84F1X-21" edge="1">
          <mxGeometry width="50" height="50" relative="1" as="geometry">
            <mxPoint x="840" y="824" as="sourcePoint" />
            <mxPoint x="829" y="832" as="targetPoint" />
            <Array as="points">
              <mxPoint x="829" y="822" />
            </Array>
          </mxGeometry>
        </mxCell>
        <mxCell id="O1Lk2BeVLnMHG4F84F1X-67" value="" style="endArrow=classic;html=1;rounded=0;strokeWidth=2;fontSize=14;" parent="1" target="O1Lk2BeVLnMHG4F84F1X-27" edge="1">
          <mxGeometry width="50" height="50" relative="1" as="geometry">
            <mxPoint x="829" y="832" as="sourcePoint" />
            <mxPoint x="892" y="902" as="targetPoint" />
          </mxGeometry>
        </mxCell>
        <mxCell id="O1Lk2BeVLnMHG4F84F1X-68" value="" style="endArrow=classic;html=1;rounded=0;entryX=0.5;entryY=0;entryDx=0;entryDy=0;strokeWidth=2;fontSize=14;" parent="1" target="O1Lk2BeVLnMHG4F84F1X-26" edge="1">
          <mxGeometry width="50" height="50" relative="1" as="geometry">
            <mxPoint x="1156" y="832" as="sourcePoint" />
            <mxPoint x="1216" y="858" as="targetPoint" />
          </mxGeometry>
        </mxCell>
        <mxCell id="O1Lk2BeVLnMHG4F84F1X-69" value="" style="endArrow=classic;html=1;rounded=0;entryX=0.5;entryY=0;entryDx=0;entryDy=0;strokeWidth=2;fontSize=14;" parent="1" target="O1Lk2BeVLnMHG4F84F1X-25" edge="1">
          <mxGeometry width="50" height="50" relative="1" as="geometry">
            <mxPoint x="980" y="832" as="sourcePoint" />
            <mxPoint x="824" y="658" as="targetPoint" />
          </mxGeometry>
        </mxCell>
        <mxCell id="O1Lk2BeVLnMHG4F84F1X-81" value="否" style="text;html=1;align=center;verticalAlign=middle;resizable=0;points=[];autosize=1;strokeColor=none;fillColor=none;fontSize=14;" parent="1" vertex="1">
          <mxGeometry x="827" y="539" width="34" height="30" as="geometry" />
        </mxCell>
        <mxCell id="O1Lk2BeVLnMHG4F84F1X-82" value="是" style="text;html=1;align=center;verticalAlign=middle;resizable=0;points=[];autosize=1;strokeColor=none;fillColor=none;fontSize=14;" parent="1" vertex="1">
          <mxGeometry x="739" y="459" width="34" height="30" as="geometry" />
        </mxCell>
        <mxCell id="O1Lk2BeVLnMHG4F84F1X-83" value="num==3" style="text;html=1;align=center;verticalAlign=middle;resizable=0;points=[];autosize=1;strokeColor=none;fillColor=none;fontSize=14;" parent="1" vertex="1">
          <mxGeometry x="831" y="849" width="70" height="30" as="geometry" />
        </mxCell>
        <mxCell id="O1Lk2BeVLnMHG4F84F1X-84" value="num==2" style="text;html=1;align=center;verticalAlign=middle;resizable=0;points=[];autosize=1;strokeColor=none;fillColor=none;fontSize=14;" parent="1" vertex="1">
          <mxGeometry x="677" y="849" width="70" height="30" as="geometry" />
        </mxCell>
      </root>
    </mxGraphModel>
  </diagram>
</mxfile>
